<?xml version="1.0"?>
<svg xmlns="http://www.w3.org/2000/svg" id="Amplifier-Electronic-Tube-Music_Box-Audio" data-name="Amplifier-Electronic-Tube-Music Box-Audio" viewBox="0 0 64 64" width="512" height="512"><path d="M61,35H59V32a1,1,0,0,0-1-1v-.59l.71-.7A1.033,1.033,0,0,0,59,29V13a6,6,0,0,0-12,0V29a1.033,1.033,0,0,0,.29.71l.71.7V31a1,1,0,0,0-1,1v3H43V32a1,1,0,0,0-1-1v-.59l.71-.7A1.033,1.033,0,0,0,43,29V20a5,5,0,0,0-10,0v9a1.033,1.033,0,0,0,.29.71l.71.7V31a1,1,0,0,0-1,1v3H31V32a1,1,0,0,0-1-1v-.59l.71-.7A1.033,1.033,0,0,0,31,29V20a5,5,0,0,0-10,0v9a1.033,1.033,0,0,0,.29.71l.71.7V31a1,1,0,0,0-1,1v3H17V32a1,1,0,0,0-1-1v-.59l.71-.7A1.033,1.033,0,0,0,17,29V13A6,6,0,0,0,5,13V29a1.033,1.033,0,0,0,.29.71l.71.7V31a1,1,0,0,0-1,1v3H3a1,1,0,0,0-1,1V52a1,1,0,0,0,1,1H7.18a3,3,0,1,0,5.64,0H51.18a3,3,0,1,0,5.64,0H61a1,1,0,0,0,1-1V36A1,1,0,0,0,61,35ZM49,13a4,4,0,0,1,8,0V28.59l-.71.7A1.033,1.033,0,0,0,56,30v1H50V30a1.033,1.033,0,0,0-.29-.71l-.71-.7Zm0,20h8v2H49ZM35,20a3,3,0,0,1,6,0v8.59l-.71.7A1.033,1.033,0,0,0,40,30v1H36V30a1.033,1.033,0,0,0-.29-.71l-.71-.7Zm0,13h6v2H35ZM23,20a3,3,0,0,1,6,0v8.59l-.71.7A1.033,1.033,0,0,0,28,30v1H24V30a1.033,1.033,0,0,0-.29-.71l-.71-.7Zm0,13h6v2H23ZM7,13a4,4,0,0,1,8,0V28.59l-.71.7A1.033,1.033,0,0,0,14,30v1H8V30a1.033,1.033,0,0,0-.29-.71L7,28.59ZM7,33h8v2H7Zm3,22a1,1,0,1,1,1-1A1,1,0,0,1,10,55Zm44,0a1,1,0,1,1,1-1A1,1,0,0,1,54,55Zm6-4H4V37H60Z"/><path d="M32,39a5,5,0,1,0,5,5A5.006,5.006,0,0,0,32,39Zm0,8a3,3,0,1,1,3-3A3,3,0,0,1,32,47Z"/><path d="M19,39H9a1,1,0,0,0-1,1v8a1,1,0,0,0,1,1H19a1,1,0,0,0,1-1V40A1,1,0,0,0,19,39Zm-1,2v4.031a4.954,4.954,0,0,0-8,0V41Zm-1.184,6H11.184a2.982,2.982,0,0,1,5.632,0Z"/><path d="M55,39H45a1,1,0,0,0-1,1v8a1,1,0,0,0,1,1H55a1,1,0,0,0,1-1V40A1,1,0,0,0,55,39Zm-1,2v4.031a4.954,4.954,0,0,0-8,0V41Zm-1.184,6H47.184a2.982,2.982,0,0,1,5.632,0Z"/></svg>
