<svg height="496pt" viewBox="-128 0 496 496.00012" width="496pt" xmlns="http://www.w3.org/2000/svg"><g fill="#231f20"><path d="m191.199219 452.425781c-1.359375-2.726562-4.152344-4.441406-7.199219-4.425781h-56v-56c0-.144531-.070312-.265625-.078125-.398438 62.992187-4.199218 111.972656-56.46875 112.078125-119.601562 0-4.417969-3.582031-8-8-8s-8 3.582031-8 8c0 57.4375-46.5625 104-104 104s-104-46.5625-104-104c0-4.417969-3.582031-8-8-8s-8 3.582031-8 8c.105469 63.132812 49.085938 115.402344 112.078125 119.601562 0 .132813-.078125.253907-.078125.398438v56h-56c-3.03125 0-5.804688 1.710938-7.160156 4.425781l-16 32c-1.238282 2.480469-1.105469 5.425781.351562 7.78125 1.460938 2.359375 4.035156 3.792969 6.808594 3.792969h160c2.78125.015625 5.367188-1.414062 6.835938-3.773438 1.46875-2.363281 1.605468-5.316406.363281-7.800781zm-138.253907 27.574219 8-16h118.109376l8 16zm0 0"/><path d="m112 352h16c39.746094-.042969 71.957031-32.253906 72-72v-208c-.042969-39.746094-32.253906-71.9570312-72-72h-16c-39.746094.0429688-71.957031 32.253906-72 72v208c.042969 39.746094 32.253906 71.957031 72 72zm-56-280c.035156-30.914062 25.085938-55.964844 56-56h16c30.914062.035156 55.964844 25.085938 56 56v208c-.035156 30.914062-25.085938 55.964844-56 56h-16c-30.914062-.035156-55.964844-25.085938-56-56zm0 0"/><path d="m72 192h64c4.417969 0 8-3.582031 8-8s-3.582031-8-8-8h-64c-4.417969 0-8 3.582031-8 8s3.582031 8 8 8zm0 0"/><path d="m168 176h-8c-4.417969 0-8 3.582031-8 8s3.582031 8 8 8h8c4.417969 0 8-3.582031 8-8s-3.582031-8-8-8zm0 0"/><path d="m72 104h96c4.417969 0 8-3.582031 8-8s-3.582031-8-8-8h-96c-4.417969 0-8 3.582031-8 8s3.582031 8 8 8zm0 0"/><path d="m176 280c0-4.417969-3.582031-8-8-8h-96c-4.417969 0-8 3.582031-8 8s3.582031 8 8 8h96c4.417969 0 8-3.582031 8-8zm0 0"/></g></svg>