<?xml version="1.0" encoding="iso-8859-1"?>
<!-- Generator: Adobe Illustrator 19.0.0, SVG Export Plug-In . SVG Version: 6.00 Build 0)  -->
<svg version="1.1" id="Capa_1" xmlns="http://www.w3.org/2000/svg" xmlns:xlink="http://www.w3.org/1999/xlink" x="0px" y="0px"
	 viewBox="0 0 496 496" style="enable-background:new 0 0 496 496;" xml:space="preserve">
<g>
	<g>
		<g>
			<path d="M464,128V40c0-13.232-10.768-24-24-24H56c-13.232,0-24,10.768-24,24v88H0v312c0,22.056,17.944,40,40,40h416
				c22.056,0,40-17.944,40-40V128H464z M352,32h88c4.408,0,8,3.592,8,8v88h-32V64h-64V32z M368,192v48H176v-32h-16v32h-32v-48h208
				v-16H128v-32h16v16h16v-16h8h8v16h16v-16h16v16h16v-16h16v16h16v-16h16v16h16v-16h16v16h16v-16h8h8v16h16v-16h16v32h-16v16H368z
				 M184,128v-16h32v16H184z M232,128v-16h32v16H232z M280,128v-16h32v16H280z M328,128V96h-48h-64h-48v32h-56H96V80h304v48h-16H328
				z M320,32h16v32h-16V32z M288,32h16v32h-16V32z M256,32h16v32h-16V32z M224,32h16v32h-16V32z M192,32h16v32h-16V32z M160,32h16
				v32h-16V32z M48,40c0-4.408,3.592-8,8-8h88v32H80v64H48V40z M480,440c0,13.232-10.768,24-24,24H40c-13.232,0-24-10.768-24-24V144
				h96v112h272V144h96V440z"/>
			<path d="M384,272c-44.112,0-80,35.888-80,80s35.888,80,80,80s80-35.888,80-80S428.112,272,384,272z M344,401.88
				c-3.64-2.928-6.952-6.24-9.88-9.88H344V401.88z M344,376h-19.288c-2.048-5.048-3.456-10.416-4.16-16H344V376z M344,344h-23.448
				c0.704-5.584,2.104-10.952,4.16-16H344V344z M344,312h-9.88c2.928-3.64,6.24-6.952,9.88-9.88V312z M376,415.448
				c-5.584-0.704-10.952-2.104-16-4.16V392h16V415.448z M376,376h-16v-16h16V376z M376,344h-16v-16h16V344z M376,312h-16v-19.288
				c5.048-2.048,10.416-3.456,16-4.16V312z M424,302.12c3.64,2.928,6.952,6.24,9.88,9.88H424V302.12z M408,411.288
				c-5.048,2.048-10.416,3.456-16,4.16V392h16V411.288z M408,376h-16v-16h16V376z M408,344h-16v-16h16V344z M408,312h-16v-23.448
				c5.584,0.704,10.952,2.104,16,4.16V312z M424,401.88V392h9.88C430.952,395.64,427.64,398.952,424,401.88z M443.288,376H424v-16
				h23.448C446.744,365.584,445.344,370.952,443.288,376z M447.448,344H424v-16h19.288C445.336,333.048,446.744,338.416,447.448,344
				z"/>
			<path d="M208,432h80V272h-80V432z M224,288h48v32h-48V288z M224,336h48v32h-48V336z M224,384h48v32h-48V384z"/>
			<path d="M96,176H32v48h64V176z M80,208H48v-16h32V208z"/>
			<path d="M464,176h-64v48h64V176z M448,208h-32v-16h32V208z"/>
			<path d="M112,272c-44.112,0-80,35.888-80,80s35.888,80,80,80s80-35.888,80-80S156.112,272,112,272z M72,401.88
				c-3.64-2.928-6.952-6.24-9.88-9.88H72V401.88z M72,376H52.712c-2.048-5.048-3.456-10.416-4.16-16H72V376z M72,344H48.552
				c0.704-5.584,2.104-10.952,4.16-16H72V344z M72,312h-9.88c2.928-3.64,6.24-6.952,9.88-9.88V312z M104,415.448
				c-5.584-0.704-10.952-2.104-16-4.16V392h16V415.448z M104,376H88v-16h16V376z M104,344H88v-16h16V344z M104,312H88v-19.288
				c5.048-2.048,10.416-3.456,16-4.16V312z M152,302.12c3.64,2.928,6.952,6.24,9.88,9.88H152V302.12z M136,411.288
				c-5.048,2.048-10.416,3.456-16,4.16V392h16V411.288z M136,376h-16v-16h16V376z M136,344h-16v-16h16V344z M136,312h-16v-23.448
				c5.584,0.704,10.952,2.104,16,4.16V312z M152,401.88V392h9.88C158.952,395.64,155.64,398.952,152,401.88z M171.288,376H152v-16
				h23.448C174.744,365.584,173.344,370.952,171.288,376z M175.448,344H152v-16h19.288C173.336,333.048,174.744,338.416,175.448,344
				z"/>
		</g>
	</g>
</g>
<g>
</g>
<g>
</g>
<g>
</g>
<g>
</g>
<g>
</g>
<g>
</g>
<g>
</g>
<g>
</g>
<g>
</g>
<g>
</g>
<g>
</g>
<g>
</g>
<g>
</g>
<g>
</g>
<g>
</g>
</svg>
